PathFileType	4	(X/Y/Z)	c:/Users/goper/Files/vsCode/490R/osim_files/C10/C10_Fast_07.trc
DataRate	CameraRate	NumFrames	NumMarkers	Units                	OrigDataRate	OrigDataStartFrame	OrigNumFrames
250.00	250.00	6	36	mm	250.0	2383	3177
                Frame#	Time	LPSIS			LASIS			LTH1			LTH2			LTH3			LTH4			LLFE			LMFE			LSH1			LSH2			LSH3			LSH4			LLMAL			LMMAL			LCAL			LMTP5			LTOE			LMTP1			RPSIS			RASIS			RTH1			RTH2			RTH3			RTH4			RLFE			RMFE			RSH1			RSH2			RSH3			RSH4			RLMAL			RMMAL			RCAL			RMTP1			RTOE			RMTP5		
		X1	Y1	Z1	X2	Y2	Z2	X3	Y3	Z3	X4	Y4	Z4	X5	Y5	Z5	X6	Y6	Z6	X7	Y7	Z7	X8	Y8	Z8	X9	Y9	Z9	X10	Y10	Z10	X11	Y11	Z11	X12	Y12	Z12	X13	Y13	Z13	X14	Y14	Z14	X15	Y15	Z15	X16	Y16	Z16	X17	Y17	Z17	X18	Y18	Z18	X19	Y19	Z19	X20	Y20	Z20	X21	Y21	Z21	X22	Y22	Z22	X23	Y23	Z23	X24	Y24	Z24	X25	Y25	Z25	X26	Y26	Z26	X27	Y27	Z27	X28	Y28	Z28	X29	Y29	Z29	X30	Y30	Z30	X31	Y31	Z31	X32	Y32	Z32	X33	Y33	Z33	X34	Y34	Z34	X35	Y35	Z35	X36	Y36	Z36

2383	9.52800	-2094.48096	992.86334	289.00504	-2267.22070	1001.74127	426.73627	-2279.34814	765.99487	467.89587	-2296.60718	721.77942	461.18863	-2331.78906	783.99353	444.27707	-2343.19116	739.74298	439.54309	-2378.58350	498.43613	372.20694	-2362.53491	495.06879	258.99765	-2327.15210	407.44696	391.05746	-2327.49463	357.93646	392.01138	-2385.77832	404.54422	371.54898	-2376.07349	357.52429	372.36526	-2329.06616	88.34505	344.62845	0.00000	0.00000	0.00000	-2256.04688	42.66358	307.33405	-2438.52515	30.70005	351.93860	-2481.71021	54.18181	284.31607	-2444.30273	33.16549	244.09001	-2095.03320	987.62665	205.99217	-2259.40015	967.02637	90.45705	-2158.79395	695.28827	69.11678	-2171.03809	656.13354	61.72777	-2220.05737	707.35248	52.17046	-2223.87036	662.74811	54.53127	-2195.12378	437.26035	103.64026	-2230.89502	422.26193	216.45384	-2088.76685	429.13858	103.21725	-2055.69458	400.64478	103.47394	-2138.00122	386.96344	90.81185	-2085.53271	357.17303	100.90188	-1849.83594	243.24417	160.54945	0.00000	0.00000	0.00000	-1793.73083	285.06781	198.14534	-1844.56128	106.14519	260.91998	-1867.98572	78.09937	223.07762	-1826.22986	104.94424	157.26308
2384	9.53200	-2099.29028	992.68909	288.66977	-2272.72363	1003.14154	426.40329	-2283.16260	766.81354	468.11606	-2298.88867	722.44843	459.16351	-2335.55249	784.42377	444.23688	-2322.83203	731.40692	449.47388	-2380.16333	498.26056	372.49564	-2365.02368	494.82129	259.44772	-2327.79053	407.41333	391.51279	-2327.94189	357.98615	392.39804	-2386.49146	404.22446	372.27576	-2376.54077	357.26367	373.00085	-2329.11279	88.29504	344.72287	0.00000	0.00000	0.00000	-2256.05713	42.67912	307.37701	-2438.54199	30.65782	352.01666	-2481.72314	54.18288	284.37961	-2444.28247	33.16719	244.13533	-2100.15869	988.69574	206.10553	-2263.90479	968.12018	89.63364	-2170.02319	698.27966	64.12321	-2179.42065	656.71893	61.48361	-2227.66138	708.51312	52.08818	-2232.11377	664.04022	54.22704	-2207.64038	438.00443	103.15295	-2243.12451	423.70093	216.37788	-2100.86011	430.62979	103.10789	-2068.33423	401.96472	103.42087	-2151.25122	388.86905	89.96957	-2098.04663	358.35187	101.07398	-1861.41956	245.97058	161.26627	0.00000	0.00000	0.00000	-1804.74377	286.49155	199.74478	-1858.50183	107.33411	259.88644	-1881.93420	79.85780	221.60957	-1839.52954	107.45839	156.31921
2385	9.53600	-2105.04858	995.84033	288.84686	-2278.23999	1004.50684	425.97034	-2339.30591	784.91370	444.20599	0.00000	0.00000	0.00000	-2286.76514	767.60730	468.21402	-2302.45874	723.21136	459.68484	-2381.55811	498.00949	373.09271	-2367.35986	494.57755	259.99060	0.00000	0.00000	0.00000	-2328.40967	358.06107	392.85855	-2387.26001	403.95782	372.96689	-2376.87817	356.99136	373.62424	-2329.07080	88.28153	344.84335	0.00000	0.00000	0.00000	-2256.00879	42.68658	307.37915	-2438.46216	30.62753	352.10089	-2481.70166	54.14907	284.42181	-2444.21118	33.17055	244.20581	-2105.22510	989.87439	206.20506	-2268.34351	969.21191	88.84145	-2177.88647	698.77899	63.98508	-2187.89136	657.34442	61.22005	-2235.34888	709.83258	51.97751	-2240.32104	665.43005	53.90989	-2219.89331	438.98062	102.64451	-2263.70459	429.33444	214.19690	-2114.11328	431.71173	103.06600	-2080.84692	403.43283	103.40495	-2163.41797	389.75363	90.49593	-2110.48511	359.66492	101.15400	-1873.37366	248.31847	161.96835	0.00000	0.00000	0.00000	-1816.20801	287.58157	201.48376	-1872.73169	108.21054	258.87604	-1895.11987	79.92560	220.99225	-1853.09326	109.64447	155.26767
2386	9.54000	-2110.36841	997.43152	288.90292	-2283.77563	1005.84290	425.51862	-2343.01855	785.51593	444.19290	0.00000	0.00000	0.00000	-2290.38477	768.54071	468.20770	-2306.18848	724.15704	460.11926	-2382.85693	497.80502	373.51126	-2369.76343	494.47574	260.51340	0.00000	0.00000	0.00000	-2328.95068	358.17685	393.46768	-2388.00269	403.76920	373.53827	-2377.44385	356.79562	374.19827	-2329.04102	88.26169	344.95349	0.00000	0.00000	0.00000	-2255.96313	42.72531	307.38843	-2438.44165	30.51065	352.19226	-2481.66113	54.15303	284.47760	-2444.26343	33.22913	244.23317	-2110.29688	991.18347	206.39473	-2272.80835	970.33588	88.00282	-2185.77563	699.38025	63.81863	-2196.33789	658.14697	60.87914	-2243.03027	711.27136	51.87917	-2248.60498	666.89722	53.61443	-2232.08203	440.15811	102.13370	-2275.79053	431.03632	213.99957	-2126.69629	433.17209	103.03256	-2093.33813	404.98563	103.46237	-2174.69629	389.82675	92.11646	-2122.86133	361.14047	101.20907	-1885.62622	250.24059	162.65186	0.00000	0.00000	0.00000	-1828.12842	288.30298	203.27660	-1887.20764	108.73762	257.79800	-1909.71802	81.30742	219.31335	-1865.76282	111.83669	153.89841
2387	9.54400	-2115.67651	999.16675	289.04153	-2289.33203	1007.17487	425.04074	-2346.68652	786.10022	444.23608	0.00000	0.00000	0.00000	-2293.93701	769.43982	468.10541	-2309.72461	725.02423	460.39310	-2383.92188	497.59247	374.15015	-2372.02539	494.40222	261.04633	0.00000	0.00000	0.00000	-2329.53979	358.24319	393.98474	-2388.88232	403.68765	374.00818	-2378.23584	356.78000	374.72327	-2329.04834	88.27138	345.03949	0.00000	0.00000	0.00000	-2255.94189	42.73066	307.40927	-2438.37134	30.51341	352.22928	-2481.61792	54.10055	284.51022	-2444.17578	33.18304	244.29506	-2115.43970	992.51617	206.58870	-2277.21753	971.44354	87.22730	-2193.67749	700.01086	63.57065	-2204.76758	658.98071	60.45167	-2250.79321	712.76227	51.75986	-2256.18359	668.55219	53.12053	-2244.98608	441.32449	101.72032	-2288.01416	432.94064	213.68758	-2139.03247	434.81293	102.96109	-2105.72778	406.61417	103.50249	-2185.28223	389.29758	94.55666	-2135.23999	362.69186	101.23557	-1898.18091	251.61079	163.28123	0.00000	0.00000	0.00000	-1840.37231	288.63223	204.98676	-1901.92615	108.91121	256.58640	-1924.43994	82.39165	217.63402	-1879.75232	113.37238	152.88318
2388	9.54800	-2120.53760	999.41998	288.92288	-2294.93799	1008.46667	424.57120	-2350.31689	786.67688	444.24258	0.00000	0.00000	0.00000	-2297.46899	770.32922	468.00076	-2313.08374	725.83734	460.54880	-2384.97925	497.49683	374.67957	-2374.17407	494.38303	261.50150	0.00000	0.00000	0.00000	-2330.38086	358.39362	394.61639	-2389.71655	403.61606	374.31668	-2378.82153	356.69910	375.02518	-2329.11230	88.28380	345.13736	0.00000	0.00000	0.00000	-2255.96973	42.75605	307.45288	-2438.43018	30.45998	352.29654	-2481.60742	54.10415	284.53616	-2444.20557	33.23434	244.29527	-2121.12622	994.01703	206.86565	-2281.59375	972.57788	86.44725	-2201.41577	700.88074	63.17012	-2213.26270	659.94653	60.04834	-2258.50122	714.33295	51.62772	-2265.54395	670.16266	53.09087	-2256.39453	442.96329	101.03337	-2300.03320	434.86212	213.35291	-2151.38232	436.49606	102.96589	-2117.98315	408.29825	103.58694	-2195.37158	388.37564	97.54203	-2147.58203	364.40051	101.23626	-1910.82568	252.65009	163.92415	0.00000	0.00000	0.00000	-1852.80054	288.60083	206.66519	-1917.06372	110.69614	253.25137	-1939.46606	83.13593	215.96376	-1894.01111	114.62742	151.89391
